<svg width="512" height="512" viewBox="0 0 512 512" fill="none" xmlns="http://www.w3.org/2000/svg">
    <path
        d="M256.5 493C387.678 493 494 386.434 494 255C494 123.566 387.678 17 256.5 17C125.322 17 19 123.566 19 255C19 386.434 125.322 493 256.5 493Z"
        stroke-width="10" stroke="currentColor" />
    <path fill-rule="evenodd" clip-rule="evenodd"
        d="M256 484C381.921 484 484 381.921 484 256C484 130.079 381.921 28 256 28C130.079 28 28 130.079 28 256C28 381.921 130.079 484 256 484ZM249 63L265.306 64.0025L283.394 65.9884C283.464 65.9961 283.534 66.0113 283.601 66.0337L300 71.5L314.5 78.5L327.5 87L341 97.5L353.5 109.5L360 117L365.5 124L375.207 138.435L384.1 154.5L391.513 171.567L397 190.5L401 208.5L403.5 227.5L405 246V257V266.5V276L404 287.5L402.5 296.5L400 305.5L397.5 315.5L395 323.5L388 341L378 358.5L368.5 371.5L357 386L346.5 396.5L337.572 404.932C337.524 404.977 337.472 405.018 337.416 405.053L329.5 410L320.075 416.449C320.064 416.456 320.053 416.463 320.042 416.47C320.035 416.475 320.027 416.48 320.019 416.484C320.005 416.492 319.991 416.5 319.977 416.508C319.957 416.518 319.937 416.528 319.917 416.537L302.516 424.271C302.196 424.413 301.973 424.713 301.93 425.06L300.011 440.411C300.004 440.47 299.991 440.529 299.973 440.585L295.436 455.106C295.226 455.777 294.408 456.028 293.858 455.59L263.283 431.226C263.1 431.08 262.872 431.003 262.638 431.008L241.184 431.485C240.772 431.494 240.407 431.755 240.266 432.143L236.544 442.379C236.515 442.459 236.496 442.543 236.488 442.628L235.018 458.311C235.006 458.436 235.018 458.562 235.053 458.683L239.433 473.77C239.477 473.921 239.556 474.06 239.664 474.175L245.3 480.187C245.916 480.844 245.418 481.917 244.518 481.869L228.217 481.011C228.074 481.004 227.934 480.966 227.807 480.899L216.5 475L198.611 463.571C198.537 463.524 198.47 463.467 198.411 463.402L183.062 446.568C183.021 446.523 182.984 446.474 182.952 446.422L171.57 428.111C171.524 428.036 171.487 427.955 171.462 427.87L165.578 408.26C165.527 408.09 165.431 407.936 165.301 407.815L144.5 388.5L130.054 373.555C130.018 373.519 129.985 373.479 129.956 373.437L118 356.5L109.5 340L103.5 325L96.4386 303.59C96.4189 303.53 96.4049 303.469 96.3967 303.406L93.8546 284V265.129L93 246L93.8546 226.871L96.409 207.952L100.635 189.45L106.487 171.567L113.9 154.5L122.793 138.435L133.069 123.549L144.616 110.005L157.306 97.9499L171 87.5173L185.549 78.8212L200.793 71.9567L216.566 66.999L232.694 64.0025L249 63ZM361.139 211.126C360.535 211.448 360.234 211.609 360.012 211.842C359.823 212.039 359.677 212.273 359.583 212.529C359.471 212.831 359.46 213.173 359.436 213.856L359.074 224.34V224.34V224.34C359.047 225.128 359.034 225.523 359.151 225.868C359.249 226.16 359.415 226.426 359.634 226.644C359.892 226.901 360.252 227.063 360.971 227.387L368.572 230.807C368.734 230.88 368.815 230.917 368.892 230.96C368.928 230.98 368.964 231.002 369 231.025C369.028 231.043 369.055 231.062 369.082 231.081C369.116 231.105 369.148 231.131 369.188 231.163C369.231 231.2 369.283 231.245 369.354 231.306L369.355 231.307L379.645 240.194L379.646 240.194L379.646 240.195C379.78 240.31 379.847 240.368 379.908 240.431C379.96 240.485 380.009 240.542 380.055 240.601C380.078 240.63 380.099 240.659 380.123 240.695C380.14 240.721 380.159 240.75 380.181 240.784C380.202 240.816 380.225 240.852 380.253 240.895L387.761 252.626C387.851 252.768 387.896 252.838 387.936 252.912C387.969 252.975 387.999 253.04 388.025 253.106C388.056 253.183 388.08 253.262 388.128 253.42L388.129 253.423L388.129 253.424L391.5 264.5L393.448 275.214L393.457 275.266C393.461 275.285 393.464 275.303 393.467 275.319C393.471 275.34 393.474 275.358 393.476 275.375C393.48 275.395 393.482 275.413 393.484 275.431C393.49 275.477 393.494 275.524 393.497 275.571C393.5 275.625 393.5 275.68 393.5 275.79V290.222C393.5 290.277 393.5 290.318 393.5 290.352C393.499 290.383 393.499 290.408 393.497 290.432C393.495 290.477 393.491 290.522 393.486 290.566C393.479 290.618 393.471 290.669 393.453 290.77L393.452 290.774L391.5 302L389.5 311L386.5 320L381.5 332L374.685 343.683C374.615 343.803 374.58 343.863 374.541 343.92C374.508 343.969 374.472 344.016 374.435 344.062C374.391 344.115 374.344 344.166 374.25 344.266L374.248 344.267L366.858 352.119C366.723 352.263 366.655 352.335 366.581 352.4C366.557 352.421 366.533 352.441 366.508 352.461C366.467 352.493 366.425 352.523 366.382 352.552C366.301 352.607 366.214 352.654 366.04 352.748L366.04 352.748L360.423 355.772C360.351 355.811 360.295 355.841 360.248 355.866C360.208 355.887 360.174 355.904 360.141 355.919C360.127 355.925 360.114 355.931 360.1 355.937C360.029 355.967 359.957 355.993 359.883 356.015C359.796 356.041 359.707 356.059 359.529 356.094L359.528 356.094L350.313 357.937L350.223 357.955C350.16 357.968 350.118 357.975 350.075 357.981C350.025 357.988 349.974 357.993 349.922 357.996C349.862 358 349.802 358 349.681 358H337.374C337.232 358 337.162 358 337.091 357.995C337.031 357.991 336.972 357.984 336.912 357.974C336.843 357.963 336.774 357.947 336.637 357.915L336.636 357.914L328.864 356.086C328.726 356.053 328.657 356.037 328.588 356.026C328.559 356.021 328.53 356.017 328.5 356.014C328.47 356.01 328.439 356.007 328.409 356.005C328.338 356 328.268 356 328.126 356H324.355C324.033 356 323.872 356 323.716 356.025C323.582 356.046 323.451 356.081 323.325 356.129C323.177 356.185 323.037 356.265 322.758 356.424L321.591 357.091L321.591 357.091C321.005 357.426 320.712 357.593 320.498 357.829C320.317 358.029 320.178 358.264 320.09 358.519C319.986 358.82 319.981 359.157 319.969 359.832V359.832V359.833L319.5 388L317.597 400.847L317.597 400.847C317.56 401.093 317.542 401.217 317.509 401.336C317.481 401.437 317.445 401.536 317.401 401.632C317.35 401.744 317.285 401.85 317.154 402.062L317.154 402.062L313.96 407.252C313.787 407.534 313.7 407.674 313.594 407.797C313.503 407.902 313.402 407.997 313.292 408.081C313.162 408.179 313.016 408.256 312.725 408.41L312.724 408.411L305 412.5L294.726 416.414C294.64 416.447 294.598 416.463 294.554 416.477C294.533 416.484 294.513 416.49 294.492 416.497C294.484 416.499 294.476 416.501 294.468 416.503C294.459 416.506 294.451 416.508 294.442 416.51C294.398 416.522 294.353 416.532 294.264 416.551L283 419L268.5 421.5L253.765 422.482C253.664 422.489 253.614 422.492 253.564 422.493C253.521 422.494 253.479 422.493 253.436 422.491C253.386 422.489 253.337 422.484 253.238 422.474L253.236 422.474L228.259 420.025C228.161 420.016 228.112 420.011 228.063 420.004C228.022 419.998 227.98 419.99 227.94 419.982C227.892 419.971 227.844 419.959 227.75 419.934L227.749 419.934L211.32 415.585L211.318 415.584C211.25 415.566 211.202 415.553 211.161 415.542C211.13 415.533 211.105 415.525 211.079 415.517C211.028 415.5 210.979 415.481 210.93 415.46C210.872 415.436 210.816 415.408 210.704 415.352L200.73 410.365L200.729 410.365C200.455 410.227 200.318 410.159 200.194 410.071C200.088 409.997 199.99 409.912 199.901 409.819C199.796 409.709 199.708 409.583 199.532 409.331L196.874 405.534C196.733 405.333 196.662 405.232 196.605 405.124C196.556 405.032 196.514 404.937 196.48 404.839C196.441 404.723 196.415 404.603 196.363 404.362L195.12 398.562L195.12 398.561C195.075 398.349 195.052 398.243 195.041 398.136C195.036 398.084 195.032 398.031 195.031 397.978C195.03 397.939 195.03 397.9 195.032 397.861C195.035 397.754 195.051 397.646 195.081 397.432L196.45 387.847C196.469 387.716 196.479 387.65 196.492 387.585C196.504 387.53 196.518 387.475 196.534 387.421C196.553 387.358 196.577 387.296 196.623 387.172L200.82 375.98C200.888 375.799 200.922 375.708 200.964 375.621C200.982 375.584 201.002 375.548 201.022 375.512C201.042 375.477 201.064 375.442 201.086 375.407C201.139 375.327 201.199 375.251 201.32 375.1L201.32 375.099L208.063 366.672C208.411 366.236 208.585 366.019 208.691 365.773C208.782 365.565 208.836 365.342 208.851 365.115C208.87 364.849 208.815 364.575 208.706 364.029L208.262 361.808C208.164 361.32 208.115 361.076 208.013 360.858C207.927 360.673 207.812 360.502 207.674 360.351C207.511 360.174 207.304 360.036 206.89 359.76L204.524 358.182C204.141 357.927 203.95 357.8 203.741 357.72C203.563 357.652 203.377 357.61 203.188 357.594C202.965 357.576 202.737 357.609 202.282 357.674L197.479 358.36C197.111 358.413 196.928 358.439 196.755 358.497C196.608 358.546 196.467 358.612 196.335 358.694C196.18 358.791 196.043 358.915 195.768 359.165L191.313 363.215L191.313 363.215C191.195 363.323 191.136 363.377 191.081 363.435C191.034 363.485 190.991 363.537 190.949 363.591C190.901 363.654 190.858 363.722 190.771 363.856L186.686 370.211L186.685 370.213C186.615 370.321 186.58 370.375 186.549 370.432C186.522 370.48 186.497 370.53 186.475 370.58C186.448 370.639 186.425 370.7 186.379 370.822L183.676 378.031L183.676 378.032C183.609 378.208 183.576 378.297 183.552 378.388C183.543 378.418 183.536 378.449 183.529 378.48C183.518 378.527 183.51 378.575 183.503 378.623C183.489 378.717 183.484 378.811 183.475 379.001L183 388.5V397.667C183 399.446 183 400.336 182.62 400.86C182.302 401.299 181.82 401.59 181.284 401.667C180.642 401.759 179.855 401.345 178.28 400.516L173.727 398.12C173.673 398.091 173.637 398.072 173.606 398.055C173.588 398.045 173.572 398.036 173.556 398.027C173.521 398.006 173.486 397.984 173.452 397.961C173.426 397.943 173.401 397.925 173.366 397.9C173.346 397.885 173.323 397.867 173.295 397.846L163.683 390.637C163.614 390.585 163.579 390.559 163.546 390.532C163.517 390.508 163.489 390.484 163.462 390.459C163.43 390.43 163.4 390.4 163.339 390.339L163.338 390.338L155.421 382.421L155.421 382.421C155.077 382.077 154.905 381.905 154.782 381.705C154.677 381.534 154.599 381.349 154.549 381.155C154.49 380.927 154.486 380.684 154.478 380.198L154.094 357.168C154.063 355.292 154.048 354.354 153.639 353.828C153.298 353.389 152.79 353.111 152.236 353.062C151.573 353.003 150.775 353.496 149.18 354.484L144.279 357.518L144.278 357.518C143.986 357.699 143.84 357.79 143.683 357.853C143.549 357.908 143.41 357.947 143.268 357.971C143.101 358 142.928 358 142.584 358H135.548C134.973 358 134.686 358 134.421 357.926C134.197 357.863 133.984 357.761 133.795 357.625C133.571 357.464 133.392 357.24 133.033 356.792L128 350.5L123.632 343.705L123.631 343.704C123.582 343.627 123.557 343.588 123.534 343.549C123.527 343.537 123.52 343.525 123.513 343.512C123.501 343.49 123.489 343.468 123.478 343.445C123.466 343.422 123.455 343.399 123.442 343.369C123.43 343.344 123.417 343.315 123.401 343.277L113.126 320.283L113.126 320.282C113.078 320.175 113.055 320.122 113.034 320.067C113.016 320.021 113 319.974 112.986 319.926C112.975 319.888 112.965 319.85 112.952 319.794C112.946 319.767 112.938 319.736 112.93 319.698L108 298.5L106.529 284.28C106.523 284.221 106.519 284.179 106.515 284.144C106.513 284.115 106.511 284.092 106.51 284.068C106.509 284.047 106.508 284.025 106.508 284.004C106.507 283.98 106.507 283.956 106.508 283.932C106.509 283.879 106.512 283.826 106.52 283.719L107.477 270.327C107.485 270.203 107.49 270.141 107.498 270.08C107.505 270.028 107.514 269.976 107.525 269.924C107.538 269.864 107.555 269.804 107.589 269.685L111.867 254.472C111.917 254.294 111.943 254.204 111.976 254.118C112.004 254.045 112.036 253.973 112.073 253.904C112.116 253.822 112.166 253.744 112.267 253.589L112.267 253.589L118.5 244L122.645 238.934L122.645 238.934C122.779 238.77 122.846 238.688 122.921 238.614C122.985 238.551 123.053 238.492 123.124 238.438C123.208 238.375 123.299 238.321 123.481 238.212L128 235.5L139.201 227.708C139.314 227.629 139.371 227.59 139.424 227.547C139.47 227.51 139.514 227.472 139.556 227.431C139.606 227.384 139.652 227.333 139.745 227.231L143.731 222.846L143.731 222.846L143.731 222.846C144.019 222.529 144.163 222.371 144.268 222.191C144.358 222.037 144.427 221.873 144.473 221.701C144.528 221.5 144.54 221.286 144.563 220.859L145 213L144.548 205.321C144.53 205.012 144.521 204.857 144.489 204.708C144.462 204.581 144.422 204.456 144.371 204.337C144.31 204.197 144.228 204.065 144.064 203.803L144.064 203.803L139.5 196.5L134.393 188.607C134.245 188.378 134.171 188.264 134.113 188.142C134.064 188.038 134.024 187.93 133.994 187.819C133.958 187.689 133.94 187.554 133.904 187.283L133.044 180.826C133.027 180.703 133.019 180.641 133.014 180.579C133.011 180.526 133.009 180.473 133.01 180.42C133.01 180.358 133.015 180.296 133.023 180.171L133.467 173.955C133.48 173.783 133.486 173.697 133.499 173.612C133.511 173.54 133.526 173.468 133.546 173.398C133.568 173.315 133.598 173.234 133.658 173.072L136.83 164.461C136.894 164.287 136.926 164.199 136.966 164.116C137 164.045 137.038 163.976 137.08 163.91C137.13 163.831 137.186 163.758 137.299 163.611L141.763 157.808C141.853 157.692 141.897 157.633 141.946 157.579C141.988 157.532 142.032 157.487 142.078 157.445C142.131 157.395 142.189 157.349 142.303 157.257L142.304 157.257L149.074 151.841C149.235 151.712 149.316 151.648 149.402 151.592C149.475 151.545 149.551 151.502 149.63 151.465C149.723 151.421 149.82 151.387 150.014 151.318L157.779 148.578C157.863 148.548 157.905 148.534 157.946 148.517C157.981 148.503 158.015 148.488 158.049 148.472C158.089 148.453 158.128 148.432 158.206 148.391L158.207 148.391L166.858 143.838L166.859 143.837C167.1 143.71 167.221 143.647 167.331 143.568C167.425 143.501 167.513 143.426 167.594 143.344C167.689 143.248 167.771 143.139 167.935 142.92L169.944 140.241C170.153 139.963 170.257 139.823 170.335 139.671C170.402 139.541 170.454 139.404 170.49 139.263C170.533 139.097 170.548 138.924 170.577 138.577V138.577L171.5 127.5L173.937 116.291C173.961 116.181 173.973 116.126 173.988 116.071C174 116.025 174.015 115.98 174.031 115.934C174.042 115.904 174.053 115.875 174.069 115.836C174.082 115.806 174.097 115.771 174.116 115.725L177.826 106.912C177.892 106.757 177.925 106.679 177.964 106.604C177.997 106.54 178.034 106.478 178.074 106.419C178.121 106.349 178.174 106.283 178.28 106.151L181.702 101.873L181.702 101.872C181.726 101.843 181.738 101.828 181.749 101.814C181.918 101.611 182.125 101.443 182.359 101.321C182.376 101.312 182.393 101.303 182.427 101.286C182.733 101.134 182.885 101.057 182.981 101.021C184.453 100.464 185.962 101.748 185.648 103.291C185.628 103.391 185.577 103.553 185.476 103.878L185.475 103.88L184.593 106.704L184.592 106.706C184.557 106.817 184.54 106.872 184.526 106.929C184.514 106.977 184.503 107.026 184.495 107.076C184.485 107.133 184.479 107.192 184.466 107.308L184.466 107.309L183.528 115.746C183.518 115.842 183.512 115.89 183.509 115.938C183.508 115.956 183.507 115.974 183.507 115.992C183.506 116.015 183.505 116.039 183.505 116.062C183.505 116.11 183.508 116.158 183.512 116.255L183.979 126.056C183.987 126.224 183.991 126.308 184.002 126.391C184.011 126.462 184.024 126.532 184.041 126.601C184.061 126.682 184.087 126.762 184.14 126.921L187.385 136.655L187.385 136.655C187.429 136.786 187.45 136.851 187.476 136.914C187.487 136.941 187.499 136.968 187.511 136.994C187.524 137.021 187.537 137.047 187.55 137.073C187.582 137.134 187.617 137.193 187.689 137.31L187.689 137.311L194.178 147.97C194.299 148.17 194.36 148.27 194.432 148.362C194.493 148.44 194.559 148.513 194.631 148.581C194.715 148.661 194.809 148.732 194.996 148.872L194.996 148.872L196.304 149.853C197.381 150.66 197.919 151.064 198.372 151.151C199.211 151.313 200.061 150.923 200.485 150.181C200.715 149.781 200.759 149.109 200.849 147.766L200.849 147.766C200.892 147.127 200.913 146.808 201.011 146.539C201.192 146.045 201.56 145.642 202.035 145.418C202.294 145.296 202.611 145.246 203.244 145.146L206.155 144.686C207.64 144.452 208.383 144.334 208.822 143.942C209.19 143.613 209.424 143.159 209.477 142.668C209.541 142.083 209.205 141.41 208.533 140.065L204.34 131.68L204.34 131.679C204.212 131.424 204.148 131.296 204.103 131.161C204.065 131.047 204.037 130.929 204.02 130.81C204 130.67 204 130.526 204 130.24V124.17C204 123.917 204 123.791 204.016 123.666C204.029 123.561 204.051 123.456 204.081 123.354C204.116 123.234 204.166 123.118 204.267 122.887L204.267 122.886L214 100.5L219.5 89.4999L226.37 79.1943L226.371 79.1933C226.42 79.1204 226.444 79.0837 226.47 79.0482C226.492 79.0179 226.515 78.9881 226.539 78.9591C226.567 78.9251 226.597 78.8923 226.655 78.827L226.656 78.8263L230.297 74.7805C230.561 74.4877 230.693 74.3414 230.847 74.2253C230.978 74.1265 231.12 74.0443 231.272 73.9804C231.449 73.9053 231.642 73.8647 232.027 73.7836L239.89 72.1283L239.891 72.1283C240.121 72.0799 240.236 72.0557 240.352 72.0451C240.451 72.036 240.55 72.0344 240.65 72.0402C240.766 72.047 240.882 72.0674 241.113 72.1082L248.108 73.3426L248.108 73.3426C248.443 73.4017 248.611 73.4313 248.769 73.4875C248.903 73.5354 249.032 73.5975 249.154 73.6727C249.296 73.7612 249.424 73.8738 249.679 74.0991L266 88.4999L281.5 104L298 120L313.576 136.062L313.576 136.063C313.736 136.228 313.816 136.31 313.904 136.383C313.98 136.444 314.059 136.5 314.143 136.551C314.241 136.609 314.345 136.657 314.555 136.752L318.168 138.394L318.168 138.395C318.663 138.62 318.911 138.732 319.169 138.775C319.388 138.812 319.612 138.812 319.831 138.775C320.089 138.732 320.337 138.62 320.832 138.395L320.832 138.394L324.468 136.742L324.469 136.741C324.669 136.65 324.77 136.605 324.864 136.549C324.944 136.501 325.021 136.448 325.094 136.39C325.179 136.321 325.257 136.243 325.413 136.087L327.557 133.943C327.909 133.591 328.084 133.416 328.209 133.21C328.316 133.035 328.394 132.845 328.443 132.646C328.5 132.412 328.5 132.164 328.5 131.666L328.5 127.312C328.5 127.006 328.5 126.853 328.477 126.704C328.458 126.577 328.426 126.452 328.383 126.331C328.332 126.189 328.26 126.054 328.115 125.785L325 120L321.139 114.209C321.099 114.149 321.074 114.112 321.054 114.08C321.048 114.069 321.042 114.059 321.036 114.049C321.026 114.034 321.017 114.018 321.008 114.002C320.997 113.983 320.987 113.963 320.976 113.944C320.955 113.902 320.935 113.859 320.895 113.773L320.895 113.772L318.127 107.775C318.105 107.727 318.088 107.69 318.074 107.659C318.057 107.623 318.045 107.594 318.034 107.565C318.016 107.52 318 107.474 317.985 107.428C317.968 107.373 317.954 107.318 317.927 107.208L317.926 107.206L316.5 101.5L315.533 95.2166L315.533 95.2151L315.532 95.2109C315.523 95.1493 315.518 95.1175 315.514 95.0856C315.51 95.0479 315.506 95.0101 315.504 94.9722C315.503 94.9525 315.502 94.9328 315.501 94.9131C315.501 94.9004 315.5 94.8878 315.5 94.8732C315.5 94.8498 315.5 94.8216 315.5 94.7808C315.5 93.4016 315.5 92.712 315.712 92.2889C316.088 91.54 316.89 91.1045 317.723 91.1978C318.193 91.2505 318.771 91.6263 319.928 92.3779L325.5 95.9999L335.5 104L344 112L358 128.5L366 141L371 150.5L375 159L378 168L379.943 176.258L379.943 176.259C379.965 176.35 379.975 176.396 379.984 176.442C379.988 176.464 379.992 176.487 379.995 176.509C379.998 176.526 380 176.543 380.002 176.56C380.008 176.607 380.012 176.654 380.019 176.748L380.478 182.716L380.478 182.718C380.486 182.824 380.49 182.878 380.492 182.931C380.493 182.977 380.492 183.023 380.49 183.069C380.488 183.122 380.482 183.176 380.472 183.283L380.054 187.455L380.054 187.456C380.034 187.661 380.023 187.764 380.003 187.865C379.992 187.919 379.978 187.972 379.963 188.025C379.954 188.056 379.944 188.087 379.933 188.118C379.9 188.215 379.856 188.309 379.768 188.496L376.5 195.5L372.714 202.126L372.713 202.127C372.657 202.225 372.621 202.289 372.588 202.341C372.574 202.364 372.561 202.385 372.547 202.405C372.508 202.462 372.465 202.517 372.421 202.57C372.368 202.632 372.31 202.69 372.195 202.805L367.339 207.661C367.211 207.789 367.147 207.853 367.077 207.911C367.018 207.96 366.957 208.006 366.892 208.048C366.817 208.097 366.737 208.14 366.578 208.225L366.577 208.225L361.139 211.126Z"
        fill="currentColor" />
</svg>